<mxfile host="app.diagrams.net" modified="2021-04-19T20:54:00.383Z" agent="5.0 (Macintosh; Intel Mac OS X 10_15_6) AppleWebKit/537.36 (KHTML, like Gecko) Chrome/89.0.4389.128 Safari/537.36" etag="u3ifGH0jASg0arnsMqgC" version="14.6.3" type="github">
  <diagram id="N92XDq-otiPMVGBOAI89" name="Page-1">
    <mxGraphModel dx="4730" dy="3070" grid="1" gridSize="10" guides="1" tooltips="1" connect="1" arrows="1" fold="1" page="1" pageScale="1" pageWidth="4681" pageHeight="3300" background="#F1FAEE" math="0" shadow="0">
      <root>
        <mxCell id="0" />
        <mxCell id="1" parent="0" />
        <mxCell id="9n18i5xBgjGXUGJs9pCq-78" style="edgeStyle=orthogonalEdgeStyle;rounded=0;orthogonalLoop=1;jettySize=auto;html=1;entryX=0.429;entryY=0;entryDx=0;entryDy=0;entryPerimeter=0;strokeColor=#457B9D;fontColor=#1D3557;labelBackgroundColor=#F1FAEE;" edge="1" parent="1" source="9n18i5xBgjGXUGJs9pCq-1" target="9n18i5xBgjGXUGJs9pCq-3">
          <mxGeometry relative="1" as="geometry">
            <mxPoint x="1225" y="240" as="targetPoint" />
            <Array as="points">
              <mxPoint x="1225" y="220" />
              <mxPoint x="1110" y="220" />
            </Array>
          </mxGeometry>
        </mxCell>
        <mxCell id="9n18i5xBgjGXUGJs9pCq-79" style="edgeStyle=orthogonalEdgeStyle;rounded=0;orthogonalLoop=1;jettySize=auto;html=1;entryX=0.5;entryY=0;entryDx=0;entryDy=0;strokeColor=#457B9D;fontColor=#1D3557;labelBackgroundColor=#F1FAEE;" edge="1" parent="1" source="9n18i5xBgjGXUGJs9pCq-1" target="9n18i5xBgjGXUGJs9pCq-7">
          <mxGeometry relative="1" as="geometry">
            <Array as="points">
              <mxPoint x="1225" y="220" />
              <mxPoint x="710" y="220" />
            </Array>
          </mxGeometry>
        </mxCell>
        <mxCell id="9n18i5xBgjGXUGJs9pCq-80" style="edgeStyle=orthogonalEdgeStyle;rounded=0;orthogonalLoop=1;jettySize=auto;html=1;strokeColor=#457B9D;fontColor=#1D3557;labelBackgroundColor=#F1FAEE;" edge="1" parent="1" source="9n18i5xBgjGXUGJs9pCq-1" target="9n18i5xBgjGXUGJs9pCq-4">
          <mxGeometry relative="1" as="geometry">
            <Array as="points">
              <mxPoint x="1225" y="220" />
              <mxPoint x="1560" y="220" />
            </Array>
          </mxGeometry>
        </mxCell>
        <mxCell id="9n18i5xBgjGXUGJs9pCq-81" style="edgeStyle=orthogonalEdgeStyle;rounded=0;orthogonalLoop=1;jettySize=auto;html=1;strokeColor=#457B9D;fontColor=#1D3557;labelBackgroundColor=#F1FAEE;" edge="1" parent="1" source="9n18i5xBgjGXUGJs9pCq-1" target="9n18i5xBgjGXUGJs9pCq-6">
          <mxGeometry relative="1" as="geometry">
            <Array as="points">
              <mxPoint x="1225" y="220" />
              <mxPoint x="2160" y="220" />
            </Array>
          </mxGeometry>
        </mxCell>
        <mxCell id="9n18i5xBgjGXUGJs9pCq-82" style="edgeStyle=orthogonalEdgeStyle;rounded=0;orthogonalLoop=1;jettySize=auto;html=1;strokeColor=#457B9D;fontColor=#1D3557;labelBackgroundColor=#F1FAEE;" edge="1" parent="1" source="9n18i5xBgjGXUGJs9pCq-1" target="9n18i5xBgjGXUGJs9pCq-9">
          <mxGeometry relative="1" as="geometry">
            <Array as="points">
              <mxPoint x="1225" y="220" />
              <mxPoint x="3135" y="220" />
            </Array>
          </mxGeometry>
        </mxCell>
        <mxCell id="9n18i5xBgjGXUGJs9pCq-128" style="edgeStyle=orthogonalEdgeStyle;rounded=0;orthogonalLoop=1;jettySize=auto;html=1;entryX=0.5;entryY=0;entryDx=0;entryDy=0;strokeColor=#457B9D;fontColor=#1D3557;labelBackgroundColor=#F1FAEE;" edge="1" parent="1" source="9n18i5xBgjGXUGJs9pCq-1" target="9n18i5xBgjGXUGJs9pCq-67">
          <mxGeometry relative="1" as="geometry">
            <Array as="points">
              <mxPoint x="1225" y="220" />
              <mxPoint x="4130" y="220" />
            </Array>
          </mxGeometry>
        </mxCell>
        <mxCell id="9n18i5xBgjGXUGJs9pCq-1" value="HOME" style="rounded=1;whiteSpace=wrap;html=1;strokeColor=#457B9D;fontColor=#1D3557;fillColor=#33FFFF;" vertex="1" parent="1">
          <mxGeometry x="1200" y="160" width="50" height="20" as="geometry" />
        </mxCell>
        <mxCell id="9n18i5xBgjGXUGJs9pCq-88" value="" style="edgeStyle=orthogonalEdgeStyle;rounded=0;orthogonalLoop=1;jettySize=auto;html=1;strokeColor=#457B9D;fontColor=#1D3557;labelBackgroundColor=#F1FAEE;" edge="1" parent="1" source="9n18i5xBgjGXUGJs9pCq-3" target="9n18i5xBgjGXUGJs9pCq-20">
          <mxGeometry relative="1" as="geometry" />
        </mxCell>
        <mxCell id="9n18i5xBgjGXUGJs9pCq-89" style="edgeStyle=orthogonalEdgeStyle;rounded=0;orthogonalLoop=1;jettySize=auto;html=1;strokeColor=#457B9D;fontColor=#1D3557;labelBackgroundColor=#F1FAEE;" edge="1" parent="1" source="9n18i5xBgjGXUGJs9pCq-3" target="9n18i5xBgjGXUGJs9pCq-27">
          <mxGeometry relative="1" as="geometry">
            <Array as="points">
              <mxPoint x="1115" y="290" />
              <mxPoint x="1025" y="290" />
            </Array>
          </mxGeometry>
        </mxCell>
        <mxCell id="9n18i5xBgjGXUGJs9pCq-90" style="edgeStyle=orthogonalEdgeStyle;rounded=0;orthogonalLoop=1;jettySize=auto;html=1;strokeColor=#457B9D;fontColor=#1D3557;labelBackgroundColor=#F1FAEE;" edge="1" parent="1" source="9n18i5xBgjGXUGJs9pCq-3" target="9n18i5xBgjGXUGJs9pCq-21">
          <mxGeometry relative="1" as="geometry">
            <Array as="points">
              <mxPoint x="1115" y="290" />
              <mxPoint x="1200" y="290" />
            </Array>
          </mxGeometry>
        </mxCell>
        <mxCell id="9n18i5xBgjGXUGJs9pCq-3" value="Inspiration" style="rounded=1;whiteSpace=wrap;html=1;fillColor=#A8DADC;strokeColor=#457B9D;fontColor=#1D3557;" vertex="1" parent="1">
          <mxGeometry x="1080" y="250" width="70" height="20" as="geometry" />
        </mxCell>
        <mxCell id="9n18i5xBgjGXUGJs9pCq-91" style="edgeStyle=orthogonalEdgeStyle;rounded=0;orthogonalLoop=1;jettySize=auto;html=1;strokeColor=#457B9D;fontColor=#1D3557;labelBackgroundColor=#F1FAEE;" edge="1" parent="1" source="9n18i5xBgjGXUGJs9pCq-4" target="9n18i5xBgjGXUGJs9pCq-34">
          <mxGeometry relative="1" as="geometry" />
        </mxCell>
        <mxCell id="9n18i5xBgjGXUGJs9pCq-92" style="edgeStyle=orthogonalEdgeStyle;rounded=0;orthogonalLoop=1;jettySize=auto;html=1;entryX=0.5;entryY=0;entryDx=0;entryDy=0;strokeColor=#457B9D;fontColor=#1D3557;labelBackgroundColor=#F1FAEE;" edge="1" parent="1" source="9n18i5xBgjGXUGJs9pCq-4" target="9n18i5xBgjGXUGJs9pCq-22">
          <mxGeometry relative="1" as="geometry">
            <Array as="points">
              <mxPoint x="1560" y="300" />
              <mxPoint x="1330" y="300" />
            </Array>
          </mxGeometry>
        </mxCell>
        <mxCell id="9n18i5xBgjGXUGJs9pCq-93" style="edgeStyle=orthogonalEdgeStyle;rounded=0;orthogonalLoop=1;jettySize=auto;html=1;entryX=0.5;entryY=0;entryDx=0;entryDy=0;strokeColor=#457B9D;fontColor=#1D3557;labelBackgroundColor=#F1FAEE;" edge="1" parent="1" source="9n18i5xBgjGXUGJs9pCq-4" target="9n18i5xBgjGXUGJs9pCq-37">
          <mxGeometry relative="1" as="geometry">
            <Array as="points">
              <mxPoint x="1560" y="300" />
              <mxPoint x="1810" y="300" />
            </Array>
          </mxGeometry>
        </mxCell>
        <mxCell id="9n18i5xBgjGXUGJs9pCq-4" value="Projects" style="rounded=1;whiteSpace=wrap;html=1;fillColor=#A8DADC;strokeColor=#457B9D;fontColor=#1D3557;" vertex="1" parent="1">
          <mxGeometry x="1530" y="250" width="60" height="20" as="geometry" />
        </mxCell>
        <mxCell id="9n18i5xBgjGXUGJs9pCq-100" style="edgeStyle=orthogonalEdgeStyle;rounded=0;orthogonalLoop=1;jettySize=auto;html=1;entryX=0.444;entryY=0;entryDx=0;entryDy=0;entryPerimeter=0;strokeColor=#457B9D;fontColor=#1D3557;labelBackgroundColor=#F1FAEE;" edge="1" parent="1" source="9n18i5xBgjGXUGJs9pCq-6" target="9n18i5xBgjGXUGJs9pCq-26">
          <mxGeometry relative="1" as="geometry" />
        </mxCell>
        <mxCell id="9n18i5xBgjGXUGJs9pCq-101" style="edgeStyle=orthogonalEdgeStyle;rounded=0;orthogonalLoop=1;jettySize=auto;html=1;entryX=0.536;entryY=-0.093;entryDx=0;entryDy=0;entryPerimeter=0;strokeColor=#457B9D;fontColor=#1D3557;labelBackgroundColor=#F1FAEE;" edge="1" parent="1" source="9n18i5xBgjGXUGJs9pCq-6" target="9n18i5xBgjGXUGJs9pCq-28">
          <mxGeometry relative="1" as="geometry">
            <Array as="points">
              <mxPoint x="2160" y="290" />
              <mxPoint x="2309" y="290" />
            </Array>
          </mxGeometry>
        </mxCell>
        <mxCell id="9n18i5xBgjGXUGJs9pCq-102" style="edgeStyle=orthogonalEdgeStyle;rounded=0;orthogonalLoop=1;jettySize=auto;html=1;entryX=0.5;entryY=0;entryDx=0;entryDy=0;strokeColor=#457B9D;fontColor=#1D3557;labelBackgroundColor=#F1FAEE;" edge="1" parent="1" source="9n18i5xBgjGXUGJs9pCq-6" target="9n18i5xBgjGXUGJs9pCq-25">
          <mxGeometry relative="1" as="geometry">
            <Array as="points">
              <mxPoint x="2160" y="290" />
              <mxPoint x="2060" y="290" />
            </Array>
          </mxGeometry>
        </mxCell>
        <mxCell id="9n18i5xBgjGXUGJs9pCq-6" value="History" style="rounded=1;whiteSpace=wrap;html=1;fillColor=#A8DADC;strokeColor=#457B9D;fontColor=#1D3557;" vertex="1" parent="1">
          <mxGeometry x="2130" y="245" width="60" height="20" as="geometry" />
        </mxCell>
        <mxCell id="9n18i5xBgjGXUGJs9pCq-83" style="edgeStyle=orthogonalEdgeStyle;rounded=0;orthogonalLoop=1;jettySize=auto;html=1;strokeColor=#457B9D;fontColor=#1D3557;labelBackgroundColor=#F1FAEE;" edge="1" parent="1" source="9n18i5xBgjGXUGJs9pCq-7">
          <mxGeometry relative="1" as="geometry">
            <mxPoint x="350" y="315" as="targetPoint" />
            <Array as="points">
              <mxPoint x="710" y="290" />
              <mxPoint x="350" y="290" />
              <mxPoint x="350" y="315" />
            </Array>
          </mxGeometry>
        </mxCell>
        <mxCell id="9n18i5xBgjGXUGJs9pCq-84" style="edgeStyle=orthogonalEdgeStyle;rounded=0;orthogonalLoop=1;jettySize=auto;html=1;strokeColor=#457B9D;fontColor=#1D3557;labelBackgroundColor=#F1FAEE;" edge="1" parent="1" source="9n18i5xBgjGXUGJs9pCq-7" target="9n18i5xBgjGXUGJs9pCq-16">
          <mxGeometry relative="1" as="geometry" />
        </mxCell>
        <mxCell id="9n18i5xBgjGXUGJs9pCq-85" style="edgeStyle=orthogonalEdgeStyle;rounded=0;orthogonalLoop=1;jettySize=auto;html=1;strokeColor=#457B9D;fontColor=#1D3557;labelBackgroundColor=#F1FAEE;" edge="1" parent="1" source="9n18i5xBgjGXUGJs9pCq-7" target="9n18i5xBgjGXUGJs9pCq-18">
          <mxGeometry relative="1" as="geometry">
            <Array as="points">
              <mxPoint x="710" y="290" />
              <mxPoint x="820" y="290" />
            </Array>
          </mxGeometry>
        </mxCell>
        <mxCell id="9n18i5xBgjGXUGJs9pCq-86" style="edgeStyle=orthogonalEdgeStyle;rounded=0;orthogonalLoop=1;jettySize=auto;html=1;strokeColor=#457B9D;fontColor=#1D3557;labelBackgroundColor=#F1FAEE;entryX=0.631;entryY=-0.058;entryDx=0;entryDy=0;entryPerimeter=0;" edge="1" parent="1" source="9n18i5xBgjGXUGJs9pCq-7" target="9n18i5xBgjGXUGJs9pCq-142">
          <mxGeometry relative="1" as="geometry">
            <mxPoint x="500" y="321.91666666666674" as="targetPoint" />
            <Array as="points">
              <mxPoint x="710" y="290" />
              <mxPoint x="158" y="290" />
            </Array>
          </mxGeometry>
        </mxCell>
        <mxCell id="9n18i5xBgjGXUGJs9pCq-87" style="edgeStyle=orthogonalEdgeStyle;rounded=0;orthogonalLoop=1;jettySize=auto;html=1;strokeColor=#457B9D;fontColor=#1D3557;labelBackgroundColor=#F1FAEE;" edge="1" parent="1" source="9n18i5xBgjGXUGJs9pCq-7" target="9n18i5xBgjGXUGJs9pCq-19">
          <mxGeometry relative="1" as="geometry">
            <Array as="points">
              <mxPoint x="710" y="290" />
              <mxPoint x="900" y="290" />
            </Array>
          </mxGeometry>
        </mxCell>
        <mxCell id="9n18i5xBgjGXUGJs9pCq-160" style="edgeStyle=orthogonalEdgeStyle;curved=0;rounded=1;sketch=0;orthogonalLoop=1;jettySize=auto;html=1;entryX=0.5;entryY=0;entryDx=0;entryDy=0;fontColor=#1D3557;strokeColor=#457B9D;fillColor=#A8DADC;" edge="1" parent="1" source="9n18i5xBgjGXUGJs9pCq-7" target="9n18i5xBgjGXUGJs9pCq-157">
          <mxGeometry relative="1" as="geometry">
            <Array as="points">
              <mxPoint x="710" y="290" />
              <mxPoint x="580" y="290" />
            </Array>
          </mxGeometry>
        </mxCell>
        <mxCell id="9n18i5xBgjGXUGJs9pCq-7" value="Title Page" style="rounded=1;whiteSpace=wrap;html=1;fillColor=#A8DADC;strokeColor=#457B9D;fontColor=#1D3557;" vertex="1" parent="1">
          <mxGeometry x="680" y="250" width="60" height="20" as="geometry" />
        </mxCell>
        <mxCell id="9n18i5xBgjGXUGJs9pCq-108" style="edgeStyle=orthogonalEdgeStyle;rounded=0;orthogonalLoop=1;jettySize=auto;html=1;entryX=0.5;entryY=0;entryDx=0;entryDy=0;strokeColor=#457B9D;fontColor=#1D3557;labelBackgroundColor=#F1FAEE;" edge="1" parent="1" source="9n18i5xBgjGXUGJs9pCq-9" target="9n18i5xBgjGXUGJs9pCq-52">
          <mxGeometry relative="1" as="geometry" />
        </mxCell>
        <mxCell id="9n18i5xBgjGXUGJs9pCq-112" style="edgeStyle=orthogonalEdgeStyle;rounded=0;orthogonalLoop=1;jettySize=auto;html=1;strokeColor=#457B9D;fontColor=#1D3557;labelBackgroundColor=#F1FAEE;" edge="1" parent="1" source="9n18i5xBgjGXUGJs9pCq-9" target="9n18i5xBgjGXUGJs9pCq-48">
          <mxGeometry relative="1" as="geometry">
            <Array as="points">
              <mxPoint x="3135" y="290" />
              <mxPoint x="2875" y="290" />
            </Array>
          </mxGeometry>
        </mxCell>
        <mxCell id="9n18i5xBgjGXUGJs9pCq-116" style="edgeStyle=orthogonalEdgeStyle;rounded=0;orthogonalLoop=1;jettySize=auto;html=1;strokeColor=#457B9D;fontColor=#1D3557;labelBackgroundColor=#F1FAEE;" edge="1" parent="1" source="9n18i5xBgjGXUGJs9pCq-9" target="9n18i5xBgjGXUGJs9pCq-43">
          <mxGeometry relative="1" as="geometry">
            <Array as="points">
              <mxPoint x="3135" y="290" />
              <mxPoint x="2615" y="290" />
            </Array>
          </mxGeometry>
        </mxCell>
        <mxCell id="9n18i5xBgjGXUGJs9pCq-120" style="edgeStyle=orthogonalEdgeStyle;rounded=0;orthogonalLoop=1;jettySize=auto;html=1;entryX=0.5;entryY=0;entryDx=0;entryDy=0;strokeColor=#457B9D;fontColor=#1D3557;labelBackgroundColor=#F1FAEE;" edge="1" parent="1" source="9n18i5xBgjGXUGJs9pCq-9" target="9n18i5xBgjGXUGJs9pCq-56">
          <mxGeometry relative="1" as="geometry">
            <Array as="points">
              <mxPoint x="3135" y="290" />
              <mxPoint x="3405" y="290" />
            </Array>
          </mxGeometry>
        </mxCell>
        <mxCell id="9n18i5xBgjGXUGJs9pCq-121" style="edgeStyle=orthogonalEdgeStyle;rounded=0;orthogonalLoop=1;jettySize=auto;html=1;entryX=0.5;entryY=0;entryDx=0;entryDy=0;strokeColor=#457B9D;fontColor=#1D3557;labelBackgroundColor=#F1FAEE;" edge="1" parent="1" source="9n18i5xBgjGXUGJs9pCq-9" target="9n18i5xBgjGXUGJs9pCq-60">
          <mxGeometry relative="1" as="geometry">
            <Array as="points">
              <mxPoint x="3135" y="290" />
              <mxPoint x="3675" y="290" />
            </Array>
          </mxGeometry>
        </mxCell>
        <mxCell id="9n18i5xBgjGXUGJs9pCq-9" value="Blogs" style="rounded=1;whiteSpace=wrap;html=1;arcSize=25;fillColor=#A8DADC;strokeColor=#457B9D;fontColor=#1D3557;" vertex="1" parent="1">
          <mxGeometry x="3115" y="250" width="40" height="20" as="geometry" />
        </mxCell>
        <mxCell id="9n18i5xBgjGXUGJs9pCq-16" value="Facebook" style="rounded=1;whiteSpace=wrap;html=1;strokeColor=#457B9D;fontColor=#1D3557;fillColor=#FFFF00;" vertex="1" parent="1">
          <mxGeometry x="710" y="310" width="60" height="20" as="geometry" />
        </mxCell>
        <mxCell id="9n18i5xBgjGXUGJs9pCq-18" value="LinkedIn" style="rounded=1;whiteSpace=wrap;html=1;strokeColor=#457B9D;fontColor=#1D3557;fillColor=#FFFF00;" vertex="1" parent="1">
          <mxGeometry x="790" y="310" width="60" height="20" as="geometry" />
        </mxCell>
        <mxCell id="9n18i5xBgjGXUGJs9pCq-19" value="Github" style="rounded=1;whiteSpace=wrap;html=1;strokeColor=#457B9D;fontColor=#1D3557;fillColor=#FFFF00;" vertex="1" parent="1">
          <mxGeometry x="870" y="310" width="60" height="20" as="geometry" />
        </mxCell>
        <mxCell id="9n18i5xBgjGXUGJs9pCq-20" value="Inspiration People&lt;br&gt;" style="rounded=1;whiteSpace=wrap;html=1;strokeColor=#457B9D;fontColor=#1D3557;fillColor=#FFFF00;" vertex="1" parent="1">
          <mxGeometry x="1080" y="310" width="70" height="30" as="geometry" />
        </mxCell>
        <mxCell id="9n18i5xBgjGXUGJs9pCq-21" value="Hobbies" style="rounded=1;whiteSpace=wrap;html=1;strokeColor=#457B9D;fontColor=#1D3557;fillColor=#FFFF00;" vertex="1" parent="1">
          <mxGeometry x="1170" y="315" width="60" height="20" as="geometry" />
        </mxCell>
        <mxCell id="9n18i5xBgjGXUGJs9pCq-94" style="edgeStyle=orthogonalEdgeStyle;rounded=0;orthogonalLoop=1;jettySize=auto;html=1;strokeColor=#457B9D;fontColor=#1D3557;labelBackgroundColor=#F1FAEE;" edge="1" parent="1" source="9n18i5xBgjGXUGJs9pCq-22" target="9n18i5xBgjGXUGJs9pCq-33">
          <mxGeometry relative="1" as="geometry" />
        </mxCell>
        <mxCell id="9n18i5xBgjGXUGJs9pCq-95" style="edgeStyle=orthogonalEdgeStyle;rounded=0;orthogonalLoop=1;jettySize=auto;html=1;strokeColor=#457B9D;fontColor=#1D3557;labelBackgroundColor=#F1FAEE;" edge="1" parent="1" source="9n18i5xBgjGXUGJs9pCq-22" target="9n18i5xBgjGXUGJs9pCq-32">
          <mxGeometry relative="1" as="geometry" />
        </mxCell>
        <mxCell id="9n18i5xBgjGXUGJs9pCq-22" value="Projects" style="rounded=1;whiteSpace=wrap;html=1;strokeColor=#457B9D;fontColor=#1D3557;fillColor=#FFFF00;" vertex="1" parent="1">
          <mxGeometry x="1300" y="315" width="60" height="20" as="geometry" />
        </mxCell>
        <mxCell id="9n18i5xBgjGXUGJs9pCq-25" value="Title Page" style="rounded=1;whiteSpace=wrap;html=1;strokeColor=#457B9D;fontColor=#1D3557;fillColor=#FFFF00;" vertex="1" parent="1">
          <mxGeometry x="2030" y="310" width="60" height="20" as="geometry" />
        </mxCell>
        <mxCell id="9n18i5xBgjGXUGJs9pCq-26" value="Why UX Design" style="rounded=1;whiteSpace=wrap;html=1;strokeColor=#457B9D;fontColor=#1D3557;fillColor=#FFFF00;" vertex="1" parent="1">
          <mxGeometry x="2120" y="310" width="90" height="20" as="geometry" />
        </mxCell>
        <mxCell id="9n18i5xBgjGXUGJs9pCq-27" value="Title Page" style="rounded=1;whiteSpace=wrap;html=1;strokeColor=#457B9D;fontColor=#1D3557;fillColor=#FFFF00;" vertex="1" parent="1">
          <mxGeometry x="990" y="315" width="70" height="20" as="geometry" />
        </mxCell>
        <mxCell id="9n18i5xBgjGXUGJs9pCq-105" style="edgeStyle=orthogonalEdgeStyle;rounded=0;orthogonalLoop=1;jettySize=auto;html=1;entryX=0.5;entryY=0;entryDx=0;entryDy=0;strokeColor=#457B9D;fontColor=#1D3557;labelBackgroundColor=#F1FAEE;" edge="1" parent="1" source="9n18i5xBgjGXUGJs9pCq-28" target="9n18i5xBgjGXUGJs9pCq-30">
          <mxGeometry relative="1" as="geometry" />
        </mxCell>
        <mxCell id="9n18i5xBgjGXUGJs9pCq-106" style="edgeStyle=orthogonalEdgeStyle;rounded=0;orthogonalLoop=1;jettySize=auto;html=1;strokeColor=#457B9D;fontColor=#1D3557;labelBackgroundColor=#F1FAEE;" edge="1" parent="1" source="9n18i5xBgjGXUGJs9pCq-28" target="9n18i5xBgjGXUGJs9pCq-29">
          <mxGeometry relative="1" as="geometry" />
        </mxCell>
        <mxCell id="9n18i5xBgjGXUGJs9pCq-107" style="edgeStyle=orthogonalEdgeStyle;rounded=0;orthogonalLoop=1;jettySize=auto;html=1;strokeColor=#457B9D;fontColor=#1D3557;labelBackgroundColor=#F1FAEE;" edge="1" parent="1" source="9n18i5xBgjGXUGJs9pCq-28" target="9n18i5xBgjGXUGJs9pCq-31">
          <mxGeometry relative="1" as="geometry" />
        </mxCell>
        <mxCell id="9n18i5xBgjGXUGJs9pCq-28" value="History About me" style="rounded=1;whiteSpace=wrap;html=1;strokeColor=#457B9D;fontColor=#1D3557;fillColor=#FFFF00;" vertex="1" parent="1">
          <mxGeometry x="2250" y="310" width="110" height="20" as="geometry" />
        </mxCell>
        <mxCell id="9n18i5xBgjGXUGJs9pCq-29" value="Future" style="rounded=1;whiteSpace=wrap;html=1;fillColor=#A8DADC;strokeColor=#457B9D;fontColor=#1D3557;" vertex="1" parent="1">
          <mxGeometry x="2190" y="385" width="60" height="20" as="geometry" />
        </mxCell>
        <mxCell id="9n18i5xBgjGXUGJs9pCq-30" value="Born&lt;span style=&quot;color: rgba(0 , 0 , 0 , 0) ; font-family: monospace ; font-size: 0px&quot;&gt;%3CmxGraphModel%3E%3Croot%3E%3CmxCell%20id%3D%220%22%2F%3E%3CmxCell%20id%3D%221%22%20parent%3D%220%22%2F%3E%3CmxCell%20id%3D%222%22%20value%3D%22Future%22%20style%3D%22rounded%3D1%3BwhiteSpace%3Dwrap%3Bhtml%3D1%3B%22%20vertex%3D%221%22%20parent%3D%221%22%3E%3CmxGeometry%20x%3D%221230%22%20y%3D%22280%22%20width%3D%22110%22%20height%3D%2220%22%20as%3D%22geometry%22%2F%3E%3C%2FmxCell%3E%3C%2Froot%3E%3C%2FmxGraphModel%3E&lt;/span&gt;&lt;span style=&quot;color: rgba(0 , 0 , 0 , 0) ; font-family: monospace ; font-size: 0px&quot;&gt;%3CmxGraphModel%3E%3Croot%3E%3CmxCell%20id%3D%220%22%2F%3E%3CmxCell%20id%3D%221%22%20parent%3D%220%22%2F%3E%3CmxCell%20id%3D%222%22%20value%3D%22Future%22%20style%3D%22rounded%3D1%3BwhiteSpace%3Dwrap%3Bhtml%3D1%3B%22%20vertex%3D%221%22%20parent%3D%221%22%3E%3CmxGeometry%20x%3D%221230%22%20y%3D%22280%22%20width%3D%22110%22%20height%3D%2220%22%20as%3D%22geometry%22%2F%3E%3C%2FmxCell%3E%3C%2Froot%3E%3C%2FmxGraphModel%3E&lt;/span&gt;" style="rounded=1;whiteSpace=wrap;html=1;fillColor=#A8DADC;strokeColor=#457B9D;fontColor=#1D3557;" vertex="1" parent="1">
          <mxGeometry x="2275" y="385" width="60" height="20" as="geometry" />
        </mxCell>
        <mxCell id="9n18i5xBgjGXUGJs9pCq-31" value="now" style="rounded=1;whiteSpace=wrap;html=1;fillColor=#A8DADC;strokeColor=#457B9D;fontColor=#1D3557;" vertex="1" parent="1">
          <mxGeometry x="2360" y="385" width="40" height="20" as="geometry" />
        </mxCell>
        <mxCell id="9n18i5xBgjGXUGJs9pCq-32" value="Title page" style="rounded=1;whiteSpace=wrap;html=1;fillColor=#A8DADC;strokeColor=#457B9D;fontColor=#1D3557;" vertex="1" parent="1">
          <mxGeometry x="1240" y="380" width="60" height="20" as="geometry" />
        </mxCell>
        <mxCell id="9n18i5xBgjGXUGJs9pCq-33" value="Decription of Project" style="rounded=1;whiteSpace=wrap;html=1;fillColor=#A8DADC;strokeColor=#457B9D;fontColor=#1D3557;" vertex="1" parent="1">
          <mxGeometry x="1330" y="380" width="110" height="20" as="geometry" />
        </mxCell>
        <mxCell id="9n18i5xBgjGXUGJs9pCq-96" style="edgeStyle=orthogonalEdgeStyle;rounded=0;orthogonalLoop=1;jettySize=auto;html=1;entryX=0.5;entryY=0;entryDx=0;entryDy=0;strokeColor=#457B9D;fontColor=#1D3557;labelBackgroundColor=#F1FAEE;" edge="1" parent="1" source="9n18i5xBgjGXUGJs9pCq-34" target="9n18i5xBgjGXUGJs9pCq-35">
          <mxGeometry relative="1" as="geometry" />
        </mxCell>
        <mxCell id="9n18i5xBgjGXUGJs9pCq-97" style="edgeStyle=orthogonalEdgeStyle;rounded=0;orthogonalLoop=1;jettySize=auto;html=1;entryX=0.586;entryY=-0.017;entryDx=0;entryDy=0;entryPerimeter=0;strokeColor=#457B9D;fontColor=#1D3557;labelBackgroundColor=#F1FAEE;" edge="1" parent="1" source="9n18i5xBgjGXUGJs9pCq-34" target="9n18i5xBgjGXUGJs9pCq-36">
          <mxGeometry relative="1" as="geometry" />
        </mxCell>
        <mxCell id="9n18i5xBgjGXUGJs9pCq-34" value="Projects" style="rounded=1;whiteSpace=wrap;html=1;strokeColor=#457B9D;fontColor=#1D3557;fillColor=#FFFF00;" vertex="1" parent="1">
          <mxGeometry x="1530" y="315" width="60" height="20" as="geometry" />
        </mxCell>
        <mxCell id="9n18i5xBgjGXUGJs9pCq-35" value="Title page" style="rounded=1;whiteSpace=wrap;html=1;fillColor=#A8DADC;strokeColor=#457B9D;fontColor=#1D3557;" vertex="1" parent="1">
          <mxGeometry x="1470" y="380" width="60" height="20" as="geometry" />
        </mxCell>
        <mxCell id="9n18i5xBgjGXUGJs9pCq-36" value="Decription of Project" style="rounded=1;whiteSpace=wrap;html=1;fillColor=#A8DADC;strokeColor=#457B9D;fontColor=#1D3557;" vertex="1" parent="1">
          <mxGeometry x="1560" y="380" width="120" height="20" as="geometry" />
        </mxCell>
        <mxCell id="9n18i5xBgjGXUGJs9pCq-98" style="edgeStyle=orthogonalEdgeStyle;rounded=0;orthogonalLoop=1;jettySize=auto;html=1;entryX=0.5;entryY=0;entryDx=0;entryDy=0;strokeColor=#457B9D;fontColor=#1D3557;labelBackgroundColor=#F1FAEE;" edge="1" parent="1" source="9n18i5xBgjGXUGJs9pCq-37" target="9n18i5xBgjGXUGJs9pCq-38">
          <mxGeometry relative="1" as="geometry" />
        </mxCell>
        <mxCell id="9n18i5xBgjGXUGJs9pCq-99" style="edgeStyle=orthogonalEdgeStyle;rounded=0;orthogonalLoop=1;jettySize=auto;html=1;entryX=0.552;entryY=-0.017;entryDx=0;entryDy=0;entryPerimeter=0;strokeColor=#457B9D;fontColor=#1D3557;labelBackgroundColor=#F1FAEE;" edge="1" parent="1" source="9n18i5xBgjGXUGJs9pCq-37" target="9n18i5xBgjGXUGJs9pCq-39">
          <mxGeometry relative="1" as="geometry" />
        </mxCell>
        <mxCell id="9n18i5xBgjGXUGJs9pCq-37" value="Projects" style="rounded=1;whiteSpace=wrap;html=1;strokeColor=#457B9D;fontColor=#1D3557;fillColor=#FFFF00;" vertex="1" parent="1">
          <mxGeometry x="1780" y="315" width="60" height="20" as="geometry" />
        </mxCell>
        <mxCell id="9n18i5xBgjGXUGJs9pCq-38" value="Title page" style="rounded=1;whiteSpace=wrap;html=1;fillColor=#A8DADC;strokeColor=#457B9D;fontColor=#1D3557;" vertex="1" parent="1">
          <mxGeometry x="1720" y="380" width="60" height="20" as="geometry" />
        </mxCell>
        <mxCell id="9n18i5xBgjGXUGJs9pCq-39" value="Decription of Project" style="rounded=1;whiteSpace=wrap;html=1;fillColor=#A8DADC;strokeColor=#457B9D;fontColor=#1D3557;" vertex="1" parent="1">
          <mxGeometry x="1810" y="380" width="120" height="20" as="geometry" />
        </mxCell>
        <mxCell id="9n18i5xBgjGXUGJs9pCq-117" style="edgeStyle=orthogonalEdgeStyle;rounded=0;orthogonalLoop=1;jettySize=auto;html=1;entryX=0.5;entryY=0;entryDx=0;entryDy=0;strokeColor=#457B9D;fontColor=#1D3557;labelBackgroundColor=#F1FAEE;" edge="1" parent="1" source="9n18i5xBgjGXUGJs9pCq-43" target="9n18i5xBgjGXUGJs9pCq-46">
          <mxGeometry relative="1" as="geometry" />
        </mxCell>
        <mxCell id="9n18i5xBgjGXUGJs9pCq-118" style="edgeStyle=orthogonalEdgeStyle;rounded=0;orthogonalLoop=1;jettySize=auto;html=1;entryX=0.5;entryY=0;entryDx=0;entryDy=0;strokeColor=#457B9D;fontColor=#1D3557;labelBackgroundColor=#F1FAEE;" edge="1" parent="1" source="9n18i5xBgjGXUGJs9pCq-43" target="9n18i5xBgjGXUGJs9pCq-47">
          <mxGeometry relative="1" as="geometry">
            <Array as="points">
              <mxPoint x="2615" y="350" />
              <mxPoint x="2705" y="350" />
            </Array>
          </mxGeometry>
        </mxCell>
        <mxCell id="9n18i5xBgjGXUGJs9pCq-119" style="edgeStyle=orthogonalEdgeStyle;rounded=0;orthogonalLoop=1;jettySize=auto;html=1;entryX=0.5;entryY=0;entryDx=0;entryDy=0;strokeColor=#457B9D;fontColor=#1D3557;labelBackgroundColor=#F1FAEE;" edge="1" parent="1" source="9n18i5xBgjGXUGJs9pCq-43" target="9n18i5xBgjGXUGJs9pCq-45">
          <mxGeometry relative="1" as="geometry">
            <Array as="points">
              <mxPoint x="2615" y="350" />
              <mxPoint x="2525" y="350" />
            </Array>
          </mxGeometry>
        </mxCell>
        <mxCell id="9n18i5xBgjGXUGJs9pCq-43" value="Blogs" style="rounded=1;whiteSpace=wrap;html=1;strokeColor=#457B9D;fontColor=#1D3557;fillColor=#FFFF00;" vertex="1" parent="1">
          <mxGeometry x="2595" y="310" width="40" height="20" as="geometry" />
        </mxCell>
        <mxCell id="9n18i5xBgjGXUGJs9pCq-45" value="Title Page" style="rounded=1;whiteSpace=wrap;html=1;fillColor=#A8DADC;strokeColor=#457B9D;fontColor=#1D3557;" vertex="1" parent="1">
          <mxGeometry x="2490" y="380" width="70" height="20" as="geometry" />
        </mxCell>
        <mxCell id="9n18i5xBgjGXUGJs9pCq-46" value="Blog Name" style="rounded=1;whiteSpace=wrap;html=1;fillColor=#A8DADC;strokeColor=#457B9D;fontColor=#1D3557;" vertex="1" parent="1">
          <mxGeometry x="2580" y="380" width="70" height="20" as="geometry" />
        </mxCell>
        <mxCell id="9n18i5xBgjGXUGJs9pCq-47" value="Blog content" style="rounded=1;whiteSpace=wrap;html=1;fillColor=#A8DADC;strokeColor=#457B9D;fontColor=#1D3557;" vertex="1" parent="1">
          <mxGeometry x="2670" y="380" width="70" height="20" as="geometry" />
        </mxCell>
        <mxCell id="9n18i5xBgjGXUGJs9pCq-113" style="edgeStyle=orthogonalEdgeStyle;rounded=0;orthogonalLoop=1;jettySize=auto;html=1;strokeColor=#457B9D;fontColor=#1D3557;labelBackgroundColor=#F1FAEE;" edge="1" parent="1" source="9n18i5xBgjGXUGJs9pCq-48" target="9n18i5xBgjGXUGJs9pCq-50">
          <mxGeometry relative="1" as="geometry" />
        </mxCell>
        <mxCell id="9n18i5xBgjGXUGJs9pCq-114" style="edgeStyle=orthogonalEdgeStyle;rounded=0;orthogonalLoop=1;jettySize=auto;html=1;entryX=0.5;entryY=0;entryDx=0;entryDy=0;strokeColor=#457B9D;fontColor=#1D3557;labelBackgroundColor=#F1FAEE;" edge="1" parent="1" source="9n18i5xBgjGXUGJs9pCq-48" target="9n18i5xBgjGXUGJs9pCq-51">
          <mxGeometry relative="1" as="geometry">
            <Array as="points">
              <mxPoint x="2875" y="350" />
              <mxPoint x="2965" y="350" />
            </Array>
          </mxGeometry>
        </mxCell>
        <mxCell id="9n18i5xBgjGXUGJs9pCq-115" style="edgeStyle=orthogonalEdgeStyle;rounded=0;orthogonalLoop=1;jettySize=auto;html=1;entryX=0.588;entryY=0.025;entryDx=0;entryDy=0;entryPerimeter=0;strokeColor=#457B9D;fontColor=#1D3557;labelBackgroundColor=#F1FAEE;" edge="1" parent="1" source="9n18i5xBgjGXUGJs9pCq-48" target="9n18i5xBgjGXUGJs9pCq-49">
          <mxGeometry relative="1" as="geometry">
            <Array as="points">
              <mxPoint x="2875" y="350" />
              <mxPoint x="2791" y="350" />
            </Array>
          </mxGeometry>
        </mxCell>
        <mxCell id="9n18i5xBgjGXUGJs9pCq-48" value="Blogs" style="rounded=1;whiteSpace=wrap;html=1;strokeColor=#457B9D;fontColor=#1D3557;fillColor=#FFFF00;" vertex="1" parent="1">
          <mxGeometry x="2855" y="312.5" width="40" height="20" as="geometry" />
        </mxCell>
        <mxCell id="9n18i5xBgjGXUGJs9pCq-49" value="Title Page" style="rounded=1;whiteSpace=wrap;html=1;fillColor=#A8DADC;strokeColor=#457B9D;fontColor=#1D3557;" vertex="1" parent="1">
          <mxGeometry x="2750" y="382.5" width="70" height="20" as="geometry" />
        </mxCell>
        <mxCell id="9n18i5xBgjGXUGJs9pCq-50" value="Blog Name" style="rounded=1;whiteSpace=wrap;html=1;fillColor=#A8DADC;strokeColor=#457B9D;fontColor=#1D3557;" vertex="1" parent="1">
          <mxGeometry x="2840" y="382.5" width="70" height="20" as="geometry" />
        </mxCell>
        <mxCell id="9n18i5xBgjGXUGJs9pCq-51" value="Blog content" style="rounded=1;whiteSpace=wrap;html=1;fillColor=#A8DADC;strokeColor=#457B9D;fontColor=#1D3557;" vertex="1" parent="1">
          <mxGeometry x="2930" y="382.5" width="70" height="20" as="geometry" />
        </mxCell>
        <mxCell id="9n18i5xBgjGXUGJs9pCq-109" style="edgeStyle=orthogonalEdgeStyle;rounded=0;orthogonalLoop=1;jettySize=auto;html=1;strokeColor=#457B9D;fontColor=#1D3557;labelBackgroundColor=#F1FAEE;" edge="1" parent="1" source="9n18i5xBgjGXUGJs9pCq-52" target="9n18i5xBgjGXUGJs9pCq-54">
          <mxGeometry relative="1" as="geometry" />
        </mxCell>
        <mxCell id="9n18i5xBgjGXUGJs9pCq-110" style="edgeStyle=orthogonalEdgeStyle;rounded=0;orthogonalLoop=1;jettySize=auto;html=1;entryX=0.571;entryY=-0.125;entryDx=0;entryDy=0;entryPerimeter=0;strokeColor=#457B9D;fontColor=#1D3557;labelBackgroundColor=#F1FAEE;" edge="1" parent="1" source="9n18i5xBgjGXUGJs9pCq-52" target="9n18i5xBgjGXUGJs9pCq-55">
          <mxGeometry relative="1" as="geometry">
            <Array as="points">
              <mxPoint x="3135" y="350" />
              <mxPoint x="3230" y="350" />
            </Array>
          </mxGeometry>
        </mxCell>
        <mxCell id="9n18i5xBgjGXUGJs9pCq-111" style="edgeStyle=orthogonalEdgeStyle;rounded=0;orthogonalLoop=1;jettySize=auto;html=1;strokeColor=#457B9D;fontColor=#1D3557;labelBackgroundColor=#F1FAEE;" edge="1" parent="1" source="9n18i5xBgjGXUGJs9pCq-52" target="9n18i5xBgjGXUGJs9pCq-53">
          <mxGeometry relative="1" as="geometry">
            <Array as="points">
              <mxPoint x="3135" y="350" />
              <mxPoint x="3045" y="350" />
            </Array>
          </mxGeometry>
        </mxCell>
        <mxCell id="9n18i5xBgjGXUGJs9pCq-52" value="Blogs" style="rounded=1;whiteSpace=wrap;html=1;strokeColor=#457B9D;fontColor=#1D3557;fillColor=#FFFF00;" vertex="1" parent="1">
          <mxGeometry x="3115" y="312.5" width="40" height="20" as="geometry" />
        </mxCell>
        <mxCell id="9n18i5xBgjGXUGJs9pCq-53" value="Title Page" style="rounded=1;whiteSpace=wrap;html=1;fillColor=#A8DADC;strokeColor=#457B9D;fontColor=#1D3557;" vertex="1" parent="1">
          <mxGeometry x="3010" y="382.5" width="70" height="20" as="geometry" />
        </mxCell>
        <mxCell id="9n18i5xBgjGXUGJs9pCq-54" value="Blog Name" style="rounded=1;whiteSpace=wrap;html=1;fillColor=#A8DADC;strokeColor=#457B9D;fontColor=#1D3557;" vertex="1" parent="1">
          <mxGeometry x="3100" y="382.5" width="70" height="20" as="geometry" />
        </mxCell>
        <mxCell id="9n18i5xBgjGXUGJs9pCq-55" value="Blog content" style="rounded=1;whiteSpace=wrap;html=1;fillColor=#A8DADC;strokeColor=#457B9D;fontColor=#1D3557;" vertex="1" parent="1">
          <mxGeometry x="3190" y="382.5" width="70" height="20" as="geometry" />
        </mxCell>
        <mxCell id="9n18i5xBgjGXUGJs9pCq-122" style="edgeStyle=orthogonalEdgeStyle;rounded=0;orthogonalLoop=1;jettySize=auto;html=1;entryX=0.5;entryY=0;entryDx=0;entryDy=0;strokeColor=#457B9D;fontColor=#1D3557;labelBackgroundColor=#F1FAEE;" edge="1" parent="1" source="9n18i5xBgjGXUGJs9pCq-56" target="9n18i5xBgjGXUGJs9pCq-58">
          <mxGeometry relative="1" as="geometry" />
        </mxCell>
        <mxCell id="9n18i5xBgjGXUGJs9pCq-123" style="edgeStyle=orthogonalEdgeStyle;rounded=0;orthogonalLoop=1;jettySize=auto;html=1;entryX=0.5;entryY=0;entryDx=0;entryDy=0;strokeColor=#457B9D;fontColor=#1D3557;labelBackgroundColor=#F1FAEE;" edge="1" parent="1" source="9n18i5xBgjGXUGJs9pCq-56" target="9n18i5xBgjGXUGJs9pCq-57">
          <mxGeometry relative="1" as="geometry">
            <Array as="points">
              <mxPoint x="3405" y="350" />
              <mxPoint x="3315" y="350" />
            </Array>
          </mxGeometry>
        </mxCell>
        <mxCell id="9n18i5xBgjGXUGJs9pCq-124" style="edgeStyle=orthogonalEdgeStyle;rounded=0;orthogonalLoop=1;jettySize=auto;html=1;entryX=0.5;entryY=0;entryDx=0;entryDy=0;strokeColor=#457B9D;fontColor=#1D3557;labelBackgroundColor=#F1FAEE;" edge="1" parent="1" source="9n18i5xBgjGXUGJs9pCq-56" target="9n18i5xBgjGXUGJs9pCq-59">
          <mxGeometry relative="1" as="geometry">
            <Array as="points">
              <mxPoint x="3405" y="350" />
              <mxPoint x="3495" y="350" />
            </Array>
          </mxGeometry>
        </mxCell>
        <mxCell id="9n18i5xBgjGXUGJs9pCq-56" value="Blogs" style="rounded=1;whiteSpace=wrap;html=1;strokeColor=#457B9D;fontColor=#1D3557;fillColor=#FFFF00;" vertex="1" parent="1">
          <mxGeometry x="3385" y="315" width="40" height="20" as="geometry" />
        </mxCell>
        <mxCell id="9n18i5xBgjGXUGJs9pCq-57" value="Title Page" style="rounded=1;whiteSpace=wrap;html=1;fillColor=#A8DADC;strokeColor=#457B9D;fontColor=#1D3557;" vertex="1" parent="1">
          <mxGeometry x="3280" y="385" width="70" height="20" as="geometry" />
        </mxCell>
        <mxCell id="9n18i5xBgjGXUGJs9pCq-58" value="Blog Name" style="rounded=1;whiteSpace=wrap;html=1;fillColor=#A8DADC;strokeColor=#457B9D;fontColor=#1D3557;" vertex="1" parent="1">
          <mxGeometry x="3370" y="385" width="70" height="20" as="geometry" />
        </mxCell>
        <mxCell id="9n18i5xBgjGXUGJs9pCq-59" value="Blog content" style="rounded=1;whiteSpace=wrap;html=1;fillColor=#A8DADC;strokeColor=#457B9D;fontColor=#1D3557;" vertex="1" parent="1">
          <mxGeometry x="3460" y="385" width="70" height="20" as="geometry" />
        </mxCell>
        <mxCell id="9n18i5xBgjGXUGJs9pCq-125" style="edgeStyle=orthogonalEdgeStyle;rounded=0;orthogonalLoop=1;jettySize=auto;html=1;entryX=0.5;entryY=0;entryDx=0;entryDy=0;strokeColor=#457B9D;fontColor=#1D3557;labelBackgroundColor=#F1FAEE;" edge="1" parent="1" source="9n18i5xBgjGXUGJs9pCq-60" target="9n18i5xBgjGXUGJs9pCq-62">
          <mxGeometry relative="1" as="geometry" />
        </mxCell>
        <mxCell id="9n18i5xBgjGXUGJs9pCq-126" style="edgeStyle=orthogonalEdgeStyle;rounded=0;orthogonalLoop=1;jettySize=auto;html=1;entryX=0.5;entryY=0;entryDx=0;entryDy=0;strokeColor=#457B9D;fontColor=#1D3557;labelBackgroundColor=#F1FAEE;" edge="1" parent="1" source="9n18i5xBgjGXUGJs9pCq-60" target="9n18i5xBgjGXUGJs9pCq-61">
          <mxGeometry relative="1" as="geometry">
            <Array as="points">
              <mxPoint x="3675" y="350" />
              <mxPoint x="3585" y="350" />
            </Array>
          </mxGeometry>
        </mxCell>
        <mxCell id="9n18i5xBgjGXUGJs9pCq-127" style="edgeStyle=orthogonalEdgeStyle;rounded=0;orthogonalLoop=1;jettySize=auto;html=1;entryX=0.5;entryY=0;entryDx=0;entryDy=0;strokeColor=#457B9D;fontColor=#1D3557;labelBackgroundColor=#F1FAEE;" edge="1" parent="1" source="9n18i5xBgjGXUGJs9pCq-60" target="9n18i5xBgjGXUGJs9pCq-63">
          <mxGeometry relative="1" as="geometry">
            <Array as="points">
              <mxPoint x="3675" y="350" />
              <mxPoint x="3765" y="350" />
            </Array>
          </mxGeometry>
        </mxCell>
        <mxCell id="9n18i5xBgjGXUGJs9pCq-60" value="Blogs" style="rounded=1;whiteSpace=wrap;html=1;strokeColor=#457B9D;fontColor=#1D3557;fillColor=#FFFF00;" vertex="1" parent="1">
          <mxGeometry x="3655" y="315" width="40" height="15" as="geometry" />
        </mxCell>
        <mxCell id="9n18i5xBgjGXUGJs9pCq-61" value="Title Page" style="rounded=1;whiteSpace=wrap;html=1;fillColor=#A8DADC;strokeColor=#457B9D;fontColor=#1D3557;" vertex="1" parent="1">
          <mxGeometry x="3550" y="385" width="70" height="20" as="geometry" />
        </mxCell>
        <mxCell id="9n18i5xBgjGXUGJs9pCq-62" value="Blog Name" style="rounded=1;whiteSpace=wrap;html=1;fillColor=#A8DADC;strokeColor=#457B9D;fontColor=#1D3557;" vertex="1" parent="1">
          <mxGeometry x="3640" y="385" width="70" height="20" as="geometry" />
        </mxCell>
        <mxCell id="9n18i5xBgjGXUGJs9pCq-63" value="Blog content" style="rounded=1;whiteSpace=wrap;html=1;fillColor=#A8DADC;strokeColor=#457B9D;fontColor=#1D3557;" vertex="1" parent="1">
          <mxGeometry x="3730" y="385" width="70" height="20" as="geometry" />
        </mxCell>
        <mxCell id="9n18i5xBgjGXUGJs9pCq-130" style="edgeStyle=orthogonalEdgeStyle;rounded=0;orthogonalLoop=1;jettySize=auto;html=1;entryX=0.5;entryY=0;entryDx=0;entryDy=0;strokeColor=#457B9D;fontColor=#1D3557;labelBackgroundColor=#F1FAEE;" edge="1" parent="1" source="9n18i5xBgjGXUGJs9pCq-67" target="9n18i5xBgjGXUGJs9pCq-70">
          <mxGeometry relative="1" as="geometry">
            <Array as="points">
              <mxPoint x="4130" y="287.5" />
              <mxPoint x="4205" y="287.5" />
            </Array>
          </mxGeometry>
        </mxCell>
        <mxCell id="9n18i5xBgjGXUGJs9pCq-131" style="edgeStyle=orthogonalEdgeStyle;rounded=0;orthogonalLoop=1;jettySize=auto;html=1;strokeColor=#457B9D;fontColor=#1D3557;labelBackgroundColor=#F1FAEE;" edge="1" parent="1" source="9n18i5xBgjGXUGJs9pCq-67">
          <mxGeometry relative="1" as="geometry">
            <mxPoint x="4110" y="307.5" as="targetPoint" />
          </mxGeometry>
        </mxCell>
        <mxCell id="9n18i5xBgjGXUGJs9pCq-132" style="edgeStyle=orthogonalEdgeStyle;rounded=0;orthogonalLoop=1;jettySize=auto;html=1;strokeColor=#457B9D;fontColor=#1D3557;labelBackgroundColor=#F1FAEE;" edge="1" parent="1" source="9n18i5xBgjGXUGJs9pCq-67" target="9n18i5xBgjGXUGJs9pCq-68">
          <mxGeometry relative="1" as="geometry">
            <Array as="points">
              <mxPoint x="4130" y="287.5" />
              <mxPoint x="4010" y="287.5" />
            </Array>
          </mxGeometry>
        </mxCell>
        <mxCell id="9n18i5xBgjGXUGJs9pCq-133" style="edgeStyle=orthogonalEdgeStyle;rounded=0;orthogonalLoop=1;jettySize=auto;html=1;entryX=0.5;entryY=0;entryDx=0;entryDy=0;strokeColor=#457B9D;fontColor=#1D3557;labelBackgroundColor=#F1FAEE;" edge="1" parent="1" source="9n18i5xBgjGXUGJs9pCq-67" target="9n18i5xBgjGXUGJs9pCq-71">
          <mxGeometry relative="1" as="geometry">
            <Array as="points">
              <mxPoint x="4130" y="287.5" />
              <mxPoint x="4320" y="287.5" />
            </Array>
          </mxGeometry>
        </mxCell>
        <mxCell id="9n18i5xBgjGXUGJs9pCq-67" value="Contacts" style="rounded=1;whiteSpace=wrap;html=1;arcSize=0;fillColor=#A8DADC;strokeColor=#457B9D;fontColor=#1D3557;" vertex="1" parent="1">
          <mxGeometry x="4100" y="257.5" width="60" height="10" as="geometry" />
        </mxCell>
        <mxCell id="9n18i5xBgjGXUGJs9pCq-68" value="Ending Quote" style="rounded=1;whiteSpace=wrap;html=1;arcSize=0;strokeColor=#457B9D;fontColor=#1D3557;fillColor=#FFFF00;" vertex="1" parent="1">
          <mxGeometry x="3970" y="310" width="80" height="17.5" as="geometry" />
        </mxCell>
        <mxCell id="9n18i5xBgjGXUGJs9pCq-69" value="Gmail" style="rounded=1;whiteSpace=wrap;html=1;arcSize=0;strokeColor=#457B9D;fontColor=#1D3557;fillColor=#FFFF00;" vertex="1" parent="1">
          <mxGeometry x="4090" y="310" width="40" height="17.5" as="geometry" />
        </mxCell>
        <mxCell id="9n18i5xBgjGXUGJs9pCq-70" value="Resume" style="rounded=1;whiteSpace=wrap;html=1;arcSize=0;strokeColor=#457B9D;fontColor=#1D3557;fillColor=#FFFF00;" vertex="1" parent="1">
          <mxGeometry x="4180" y="310" width="50" height="17.5" as="geometry" />
        </mxCell>
        <mxCell id="9n18i5xBgjGXUGJs9pCq-75" style="edgeStyle=orthogonalEdgeStyle;rounded=0;orthogonalLoop=1;jettySize=auto;html=1;entryX=0.5;entryY=0;entryDx=0;entryDy=0;strokeColor=#457B9D;fontColor=#1D3557;labelBackgroundColor=#F1FAEE;" edge="1" parent="1" source="9n18i5xBgjGXUGJs9pCq-71" target="9n18i5xBgjGXUGJs9pCq-73">
          <mxGeometry relative="1" as="geometry" />
        </mxCell>
        <mxCell id="9n18i5xBgjGXUGJs9pCq-76" style="edgeStyle=orthogonalEdgeStyle;rounded=0;orthogonalLoop=1;jettySize=auto;html=1;entryX=0.435;entryY=-0.165;entryDx=0;entryDy=0;entryPerimeter=0;strokeColor=#457B9D;fontColor=#1D3557;labelBackgroundColor=#F1FAEE;" edge="1" parent="1" source="9n18i5xBgjGXUGJs9pCq-71" target="9n18i5xBgjGXUGJs9pCq-72">
          <mxGeometry relative="1" as="geometry">
            <mxPoint x="4290" y="367.5" as="targetPoint" />
            <Array as="points">
              <mxPoint x="4320" y="347.5" />
              <mxPoint x="4230" y="347.5" />
              <mxPoint x="4230" y="367.5" />
              <mxPoint x="4231" y="367.5" />
            </Array>
          </mxGeometry>
        </mxCell>
        <mxCell id="9n18i5xBgjGXUGJs9pCq-77" style="edgeStyle=orthogonalEdgeStyle;rounded=0;orthogonalLoop=1;jettySize=auto;html=1;entryX=0.611;entryY=-0.038;entryDx=0;entryDy=0;entryPerimeter=0;strokeColor=#457B9D;fontColor=#1D3557;labelBackgroundColor=#F1FAEE;" edge="1" parent="1" source="9n18i5xBgjGXUGJs9pCq-71" target="9n18i5xBgjGXUGJs9pCq-74">
          <mxGeometry relative="1" as="geometry">
            <mxPoint x="4390" y="367.5" as="targetPoint" />
            <Array as="points">
              <mxPoint x="4320" y="347.5" />
              <mxPoint x="4407" y="347.5" />
              <mxPoint x="4407" y="367.5" />
            </Array>
          </mxGeometry>
        </mxCell>
        <mxCell id="9n18i5xBgjGXUGJs9pCq-71" value="Social Media" style="rounded=1;whiteSpace=wrap;html=1;arcSize=0;strokeColor=#457B9D;fontColor=#1D3557;fillColor=#FFFF00;" vertex="1" parent="1">
          <mxGeometry x="4280" y="311.25" width="80" height="16.25" as="geometry" />
        </mxCell>
        <mxCell id="9n18i5xBgjGXUGJs9pCq-72" value="Facebook" style="rounded=1;whiteSpace=wrap;html=1;arcSize=0;fillColor=#A8DADC;strokeColor=#457B9D;fontColor=#1D3557;" vertex="1" parent="1">
          <mxGeometry x="4200" y="377.5" width="70" height="15" as="geometry" />
        </mxCell>
        <mxCell id="9n18i5xBgjGXUGJs9pCq-73" value="Github" style="rounded=1;whiteSpace=wrap;html=1;arcSize=0;fillColor=#A8DADC;strokeColor=#457B9D;fontColor=#1D3557;" vertex="1" parent="1">
          <mxGeometry x="4295" y="377.5" width="50" height="15" as="geometry" />
        </mxCell>
        <mxCell id="9n18i5xBgjGXUGJs9pCq-74" value="LinkedIn" style="rounded=1;whiteSpace=wrap;html=1;arcSize=0;fillColor=#A8DADC;strokeColor=#457B9D;fontColor=#1D3557;" vertex="1" parent="1">
          <mxGeometry x="4370" y="377.5" width="60" height="15" as="geometry" />
        </mxCell>
        <mxCell id="9n18i5xBgjGXUGJs9pCq-140" style="edgeStyle=orthogonalEdgeStyle;rounded=0;orthogonalLoop=1;jettySize=auto;html=1;strokeColor=#457B9D;fontColor=#1D3557;labelBackgroundColor=#F1FAEE;" edge="1" parent="1" source="9n18i5xBgjGXUGJs9pCq-142" target="9n18i5xBgjGXUGJs9pCq-144">
          <mxGeometry relative="1" as="geometry" />
        </mxCell>
        <mxCell id="9n18i5xBgjGXUGJs9pCq-141" style="edgeStyle=orthogonalEdgeStyle;rounded=0;orthogonalLoop=1;jettySize=auto;html=1;strokeColor=#457B9D;fontColor=#1D3557;labelBackgroundColor=#F1FAEE;" edge="1" parent="1" source="9n18i5xBgjGXUGJs9pCq-142" target="9n18i5xBgjGXUGJs9pCq-143">
          <mxGeometry relative="1" as="geometry" />
        </mxCell>
        <mxCell id="9n18i5xBgjGXUGJs9pCq-142" value="Projects" style="rounded=1;whiteSpace=wrap;html=1;strokeColor=#457B9D;fontColor=#1D3557;fillColor=#FFFF00;" vertex="1" parent="1">
          <mxGeometry x="120" y="317.5" width="60" height="20" as="geometry" />
        </mxCell>
        <mxCell id="9n18i5xBgjGXUGJs9pCq-143" value="Title page" style="rounded=1;whiteSpace=wrap;html=1;fillColor=#A8DADC;strokeColor=#457B9D;fontColor=#1D3557;" vertex="1" parent="1">
          <mxGeometry x="60" y="382.5" width="60" height="20" as="geometry" />
        </mxCell>
        <mxCell id="9n18i5xBgjGXUGJs9pCq-144" value="Decription of Project" style="rounded=1;whiteSpace=wrap;html=1;fillColor=#A8DADC;strokeColor=#457B9D;fontColor=#1D3557;" vertex="1" parent="1">
          <mxGeometry x="130" y="382.5" width="120" height="20" as="geometry" />
        </mxCell>
        <mxCell id="9n18i5xBgjGXUGJs9pCq-150" style="edgeStyle=orthogonalEdgeStyle;rounded=0;orthogonalLoop=1;jettySize=auto;html=1;strokeColor=#457B9D;fontColor=#1D3557;labelBackgroundColor=#F1FAEE;" edge="1" parent="1" source="9n18i5xBgjGXUGJs9pCq-152" target="9n18i5xBgjGXUGJs9pCq-154">
          <mxGeometry relative="1" as="geometry" />
        </mxCell>
        <mxCell id="9n18i5xBgjGXUGJs9pCq-151" style="edgeStyle=orthogonalEdgeStyle;rounded=0;orthogonalLoop=1;jettySize=auto;html=1;strokeColor=#457B9D;fontColor=#1D3557;labelBackgroundColor=#F1FAEE;" edge="1" parent="1" source="9n18i5xBgjGXUGJs9pCq-152" target="9n18i5xBgjGXUGJs9pCq-153">
          <mxGeometry relative="1" as="geometry">
            <Array as="points">
              <mxPoint x="350" y="363" />
              <mxPoint x="290" y="363" />
            </Array>
          </mxGeometry>
        </mxCell>
        <mxCell id="9n18i5xBgjGXUGJs9pCq-152" value="Projects" style="rounded=1;whiteSpace=wrap;html=1;strokeColor=#457B9D;fontColor=#1D3557;fillColor=#FFFF00;" vertex="1" parent="1">
          <mxGeometry x="320" y="320" width="60" height="20" as="geometry" />
        </mxCell>
        <mxCell id="9n18i5xBgjGXUGJs9pCq-153" value="Title page" style="rounded=1;whiteSpace=wrap;html=1;fillColor=#A8DADC;strokeColor=#457B9D;fontColor=#1D3557;" vertex="1" parent="1">
          <mxGeometry x="270" y="382.5" width="60" height="20" as="geometry" />
        </mxCell>
        <mxCell id="9n18i5xBgjGXUGJs9pCq-154" value="Decription of Project" style="rounded=1;whiteSpace=wrap;html=1;fillColor=#A8DADC;strokeColor=#457B9D;fontColor=#1D3557;" vertex="1" parent="1">
          <mxGeometry x="350" y="385" width="120" height="20" as="geometry" />
        </mxCell>
        <mxCell id="9n18i5xBgjGXUGJs9pCq-155" style="edgeStyle=orthogonalEdgeStyle;rounded=0;orthogonalLoop=1;jettySize=auto;html=1;strokeColor=#457B9D;fontColor=#1D3557;labelBackgroundColor=#F1FAEE;" edge="1" parent="1" source="9n18i5xBgjGXUGJs9pCq-157" target="9n18i5xBgjGXUGJs9pCq-159">
          <mxGeometry relative="1" as="geometry" />
        </mxCell>
        <mxCell id="9n18i5xBgjGXUGJs9pCq-156" style="edgeStyle=orthogonalEdgeStyle;rounded=0;orthogonalLoop=1;jettySize=auto;html=1;strokeColor=#457B9D;fontColor=#1D3557;labelBackgroundColor=#F1FAEE;" edge="1" parent="1" source="9n18i5xBgjGXUGJs9pCq-157" target="9n18i5xBgjGXUGJs9pCq-158">
          <mxGeometry relative="1" as="geometry" />
        </mxCell>
        <mxCell id="9n18i5xBgjGXUGJs9pCq-157" value="Projects" style="rounded=1;whiteSpace=wrap;html=1;strokeColor=#457B9D;fontColor=#1D3557;fillColor=#FFFF00;" vertex="1" parent="1">
          <mxGeometry x="550" y="320" width="60" height="20" as="geometry" />
        </mxCell>
        <mxCell id="9n18i5xBgjGXUGJs9pCq-158" value="Title page" style="rounded=1;whiteSpace=wrap;html=1;fillColor=#A8DADC;strokeColor=#457B9D;fontColor=#1D3557;" vertex="1" parent="1">
          <mxGeometry x="490" y="385" width="60" height="20" as="geometry" />
        </mxCell>
        <mxCell id="9n18i5xBgjGXUGJs9pCq-159" value="Decription of Project" style="rounded=1;whiteSpace=wrap;html=1;fillColor=#A8DADC;strokeColor=#457B9D;fontColor=#1D3557;" vertex="1" parent="1">
          <mxGeometry x="580" y="385" width="120" height="20" as="geometry" />
        </mxCell>
      </root>
    </mxGraphModel>
  </diagram>
</mxfile>
